<svg width="122" height="56" viewBox="0 0 122 56" fill="none" xmlns="http://www.w3.org/2000/svg">
<path d="M0 0H7.67388C11.3886 0 14.028 2.05057 14.028 5.56582C14.028 7.71404 12.9527 9.42284 11.2909 10.3017V10.3505C13.637 11.034 14.9079 13.1822 14.9079 15.6722C14.9079 19.8221 11.6819 21.9215 7.82051 21.9215H0V0ZM7.67388 9.22755C9.67788 9.22755 10.8998 7.81168 10.8998 5.90759C10.8998 4.00349 9.72676 2.68527 7.625 2.68527H3.07933V9.22755H7.67388ZM8.01603 19.2363C10.3622 19.2363 11.7796 17.7716 11.7796 15.4769C11.7796 13.2799 10.3133 11.7663 8.01603 11.7663H3.07933V19.2363H8.01603Z" fill="#231F20"/>
<path d="M25.7588 0H29.0336L36.903 21.9215H33.726L31.5264 15.6234H23.266L21.0665 21.9215H17.9383L25.7588 0ZM30.6955 13.0357L28.2516 6.10288C27.8606 4.93112 27.3718 2.9782 27.3718 2.9782C27.3718 2.9782 26.883 4.97995 26.5409 6.10288L24.0969 13.0357H30.6955Z" fill="#231F20"/>
<path d="M41.4976 0H44.528L54.3037 14.2075C55.0857 15.4281 56.1122 17.381 56.1122 17.381H56.1611C56.1611 17.381 55.9655 15.4281 55.9655 14.2075V0H58.996V21.9215H55.9655L46.1899 7.71404C45.4078 6.49346 44.3814 4.54054 44.3814 4.54054H44.3325C44.3325 4.54054 44.528 6.49346 44.528 7.71404V21.9215H41.4487V0H41.4976Z" fill="#231F20"/>
<path d="M66.0833 0H69.1627V9.22755H72.4375L77.9607 0H81.3333L74.9303 10.3993V10.4481L81.7244 21.8727H78.2051L72.3886 11.864H69.1138V21.8727H66.0345V0H66.0833Z" fill="#231F20"/>
<path d="M86.4167 0H99.1739V2.68527H89.4471V9.52049H97.3165V12.2058H89.4471V19.2363H99.6627V21.9215H86.3678V0H86.4167Z" fill="#231F20"/>
<path d="M110.269 2.68527H102.742V0H120.876V2.68527H113.349V21.9215H110.318V2.68527H110.269Z" fill="#231F20"/>
<path d="M49.2204 31.6862H52.2997V53.6077H49.2204V31.6862Z" fill="#231F20"/>
<path d="M59.3381 31.6862H62.3686L72.1442 45.8937C72.9263 47.1142 73.9527 49.0672 73.9527 49.0672H74.0016C74.0016 49.0672 73.8061 47.1142 73.8061 45.8937V31.6862H76.8365V53.6077H73.8061L64.0304 39.4002C63.2484 38.1796 62.222 36.2267 62.222 36.2267H62.1731C62.1731 36.2267 62.3686 38.1796 62.3686 39.4002V53.6077H59.2893V31.6862H59.3381Z" fill="#231F20"/>
<path d="M83.9239 31.6862H95.9968V34.3714H87.0032V41.5972H94.6771V44.2825H87.0032V53.6077H83.9239V31.6862Z" fill="#231F20"/>
<path d="M110.758 31.2956C117.259 31.2956 122 36.1779 122 42.476C122 48.9207 117.259 53.9494 110.758 53.9494C104.257 53.9494 99.4671 48.9207 99.4671 42.476C99.516 36.1779 104.257 31.2956 110.758 31.2956ZM110.758 51.1177C115.401 51.1177 118.823 47.3583 118.823 42.476C118.823 37.7402 115.401 34.0785 110.758 34.0785C106.066 34.0785 102.644 37.7402 102.644 42.476C102.644 47.3583 106.066 51.1177 110.758 51.1177Z" fill="#231F20"/>
<path d="M27.3718 56C34.7143 56 40.6667 50.0544 40.6667 42.7202C40.6667 35.3859 34.7143 29.4403 27.3718 29.4403C20.0292 29.4403 14.0769 35.3859 14.0769 42.7202C14.0769 50.0544 20.0292 56 27.3718 56Z" fill="#FF2F56"/>
<path d="M36.7564 41.939C36.7564 41.8413 36.6586 41.7437 36.5609 41.7437H32.7484C32.6018 41.7437 32.504 41.646 32.504 41.4996C32.504 41.3531 32.6018 41.2555 32.7484 41.2555H36.5609C36.6586 41.2555 36.7564 41.1578 36.7564 41.0602C36.7564 40.9625 36.6586 40.8649 36.5609 40.8649H32.7484C32.6018 40.8649 32.504 40.7672 32.504 40.6208C32.504 40.4743 32.6018 40.3766 32.7484 40.3766H36.5609C36.6586 40.3766 36.7564 40.279 36.7564 40.1813C36.7564 40.0837 36.6586 39.9861 36.5609 39.9861H32.7484C32.6018 39.9861 32.504 39.8884 32.504 39.7419C32.504 39.5955 32.6018 39.4978 32.7484 39.4978H36.5609C36.6586 39.4978 36.7564 39.4002 36.7564 39.3025C36.7564 39.2049 36.6586 39.1072 36.5609 39.1072H32.4551C31.7219 39.1072 31.0865 39.5955 30.891 40.2302H18.6226C18.3293 40.2302 18.0849 40.4255 18.036 40.7184C17.9872 41.0602 18.2804 41.4019 18.6226 41.4019H30.9399C31.1843 42.0366 31.7708 42.476 32.504 42.476H36.6098C36.6586 42.1343 36.7564 42.0366 36.7564 41.939Z" fill="white"/>
<path d="M36.7075 46.626C36.7564 46.5771 36.7564 46.5283 36.7564 46.4795C36.7564 46.3819 36.2676 44.2336 32.1618 44.2336C30.4511 44.2336 29.0825 44.5754 27.8606 44.8683C26.9808 45.1125 26.2476 45.2589 25.5633 45.2589C23.8037 45.2589 21.3109 44.8683 19.9423 44.6731C19.4046 44.5754 19.1602 44.5754 19.0625 44.5754C18.4271 44.5754 18.036 44.966 18.036 45.6007C18.036 46.5283 18.6226 46.626 19.1602 46.626H36.5609C36.6098 46.6748 36.6586 46.6748 36.7075 46.626Z" fill="white"/>
</svg>
