<svg width="32" height="34" viewBox="0 0 32 34" fill="none" xmlns="http://www.w3.org/2000/svg">
<path fill-rule="evenodd" clip-rule="evenodd" d="M24.3318 14.6507C31.9436 12.093 35.2594 25.9855 27.8212 27.0064C24.7964 27.4216 21.527 27.4546 19.9451 23.7806C18.1871 19.698 20.3178 15.9992 24.3318 14.6507C27.0684 13.7314 22.9902 15.1015 24.3318 14.6507ZM29.8143 21.5364C29.909 18.5683 29.1278 16.0149 25.7323 16.5543C22.9796 16.9916 20.7753 19.2845 21.7444 22.1319C22.9305 25.6171 29.6635 26.2809 29.8143 21.5364Z" fill="#292C30"/>
<path fill-rule="evenodd" clip-rule="evenodd" d="M14.0418 7.27549C13.7169 6.13997 13.1889 5.04773 13.1736 3.84219C13.1502 2.12806 14.908 3.14931 15.2623 4.02421C16.2237 6.40237 16.3849 9.85804 18.9641 11.2342C20.4844 12.0461 22.932 11.0033 23.6872 9.65771C24.9014 7.49672 22.6588 3.91805 21.85 1.82254C21.4367 0.75056 22.3828 -0.145568 23.5006 0.0197513C24.7659 0.206951 25.0852 2.3903 25.4053 3.37573C26.2007 5.81987 26.9284 9.41816 24.9898 11.5295C23.5719 13.0727 21.0061 14.0088 18.9388 13.5421C16.0521 12.8905 14.8519 9.76987 14.0418 7.27549C13.7177 6.1424 14.2318 7.86156 14.0418 7.27549Z" fill="#292C30"/>
<path fill-rule="evenodd" clip-rule="evenodd" d="M9.4359 22.3079C8.36346 22.8056 7.00041 23.3118 6.50645 22.1534C5.8825 20.6905 8.89 20.4704 8.28379 19.5657C7.52325 18.4316 4.5946 19.6788 4.58815 22.3088C4.57847 26.2746 9.11917 24.6909 10.8731 23.8777C12.2247 23.2507 14.1483 23.2244 15.4738 24.6875C16.7553 26.1015 16.2015 28.194 14.4428 29.5341C12.9653 30.6607 8.52537 31.2596 7.84046 31.8256C6.41323 33.0048 8.27073 34.4404 9.8381 33.8718C14.8189 32.0653 17.7405 30.6831 18.1098 27.4384C18.3752 25.1091 17.5273 22.1795 14.6163 21.6048C12.8082 21.2479 11.449 21.3735 9.4359 22.3079Z" fill="#292C30"/>
<path fill-rule="evenodd" clip-rule="evenodd" d="M16.7444 19.684C14.286 20.4885 13.6252 16.756 15.8288 15.9695C17.9934 15.198 19.4864 18.6259 16.7444 19.684Z" fill="#292C30"/>
<path fill-rule="evenodd" clip-rule="evenodd" d="M0.506552 9.65474C-0.316243 11.5656 -0.0417628 13.2798 0.653468 15.1711C1.02358 16.1787 1.46739 19.4292 2.47162 19.9637C4.12156 20.8415 3.67307 17.8236 3.32134 16.9231C2.65353 15.2143 1.70494 13.4149 1.98362 11.5214C2.42517 8.51728 5.45735 7.44546 7.81237 8.15017C10.3014 8.89525 11.2497 12.4564 9.39329 13.8261C7.96202 14.8822 6.17693 14.9009 4.57263 14.6636C4.13091 14.5983 3.65985 15.0195 3.96723 15.4899C4.37266 16.1106 5.68506 16.296 6.31934 16.3588C7.13616 16.4392 7.70125 16.4204 8.48341 16.1813C9.73453 15.7986 9.92096 16.7275 11.0876 17.2299C11.5395 17.4246 12.8362 17.3575 12.9781 16.7758C13.1886 15.9114 11.568 15.2326 10.9878 14.9641C11.6454 14.412 11.8686 13.6229 12.1008 12.7944C13.864 6.51692 3.32279 3.11328 0.506552 9.65474Z" fill="#292C30"/>
</svg>
