<svg width="59" height="58" viewBox="0 0 59 58" fill="none" xmlns="http://www.w3.org/2000/svg">
<path d="M44.3 58H55.4V45.1H59V30.3H55.3V17.4H51.6V6.3H34.4L28.1 0L21.8 6.3H7.4C3.3 6.3 0 9.6 0 13.7V50.6C0 54.7 3.3 58 7.4 58H25.8H44.3ZM25.8 54.3H7.4C5.4 54.3 3.7 52.6 3.7 50.6V20C4.8 20.7 6.1 21 7.4 21H51.7V30.2H48C43.9 30.2 40.6 33.5 40.6 37.6C40.6 41.7 43.9 45 48 45H51.7V54.2H44.3H25.8V54.3ZM28.1 5.2L31.8 9C29.5 10.4 26.6 10.4 24.4 9L28.1 5.2ZM7.4 17.4C5.4 17.4 3.7 15.7 3.7 13.7C3.7 11.7 5.4 10 7.4 10H18.1L10.7 17.4H7.4ZM16 17.4L21.8 11.6C25.6 14.4 30.8 14.4 34.6 11.6L40.3 17.4H16ZM47.9 17.4H45.4L38.1 10H48V17.4H47.9ZM55.3 41.4H47.9C45.9 41.4 44.2 39.7 44.2 37.7C44.2 35.7 45.9 34 47.9 34H55.3V41.4Z" fill="#FF3B76"/>
<path d="M18.4 46.8999H7.40002V50.5999H18.5V46.8999H18.4Z" fill="#FF3B76"/>
<path d="M25.8 39.5H7.40002V43.2H25.8V39.5Z" fill="#FF3B76"/>
</svg>
