<svg width="51" height="58" viewBox="0 0 51 58" fill="none" xmlns="http://www.w3.org/2000/svg">
<path d="M36.4 31.3V21.7C36.4 18.7 34 16.3 30.9 16.3C27.8 16.3 25.4 18.7 25.4 21.7V32.5C21.4 32.5 18.1 35.7 18.1 39.7V47.5L23.6 54.7V57.7H27.2V53.5L21.7 46.3V39.7C21.7 37.7 23.3 36.1 25.3 36.1V43.3H28.9V21.7C28.9 20.7 29.7 19.9 30.7 19.9C31.7 19.9 32.5 20.7 32.5 21.7V33.8L47 39.2V46.6L43.4 53.8V57.8H47V54.6L50.6 47.4V36.7L36.4 31.3Z" fill="#9355E1"/>
<path d="M40 25.3V28.9H43.6V25.3V14.5V0H12L0 11.9V57.8H18.2V54.2H3.6V14.5H14.5V3.6H40V14.4V25.3ZM10.9 6.2V10.9H6.2L10.9 6.2Z" fill="#9355E1"/>
<path d="M21.8 18.1H7.29999V21.7H21.8V18.1Z" fill="#9355E1"/>
<path d="M21.8 25.3H7.29999V28.9H21.8V25.3Z" fill="#9355E1"/>
<path d="M14.5 32.5H7.29999V36.1H14.6V32.5H14.5Z" fill="#9355E1"/>
<path d="M14.5 39.8H7.29999V43.4H14.6V39.8H14.5Z" fill="#9355E1"/>
<path d="M14.5 47H7.29999V50.6H14.6V47H14.5Z" fill="#9355E1"/>
</svg>
