<svg width="59" height="57" viewBox="0 0 59 57" fill="none" xmlns="http://www.w3.org/2000/svg">
<path d="M36.2636 26.2C36.2636 22.2 32.9636 19 28.9636 19C24.9636 19 21.6636 22.2 21.6636 26.2C21.6636 30.2 24.9636 33.4 28.9636 33.4C33.0636 33.4 36.2636 30.2 36.2636 26.2ZM29.0636 29.8C27.0636 29.8 25.4636 28.2 25.4636 26.2C25.4636 24.2 27.0636 22.6 29.0636 22.6C31.0636 22.6 32.6636 24.2 32.6636 26.2C32.6636 28.2 31.0636 29.8 29.0636 29.8Z" fill="#9355E1"/>
<path d="M37.4636 5.7L29.0636 0L2.36362 18.1C-0.136378 19.8 -0.736378 23.2 0.963622 25.6C1.96362 27.1 3.56362 28 5.36362 28V57H45.3636C52.3636 57 58.0636 51.4 58.0636 44.4C58.0636 40.2 56.0636 36.4 52.5636 34V28C54.3636 28 56.0636 27.1 57.0636 25.7C58.7636 23.3 58.1636 19.9 55.7636 18.2C55.7636 18.2 55.7636 18.2 55.6636 18.2L52.3636 16L37.4636 5.7ZM29.0636 8.8L6.46362 24.1C5.56362 24.7 4.46362 24.4 3.86362 23.6C3.66362 23.3 3.56362 23 3.56362 22.6C3.56362 22 3.86362 21.4 4.36362 21.1L29.0636 4.4L35.4636 8.7L50.4636 18.9L53.7636 21.1C54.2636 21.4 54.5636 22 54.5636 22.6C54.5636 23 54.4636 23.3 54.2636 23.6C53.6636 24.4 52.5636 24.6 51.6636 24.1L29.0636 8.8ZM23.5636 53.3H16.2636V40.7H23.5636V53.3ZM27.2636 53.3V37.1H12.6636V53.4H9.06362V26.7L29.0636 13.1L49.0636 26.7V32.2C42.3636 30.2 35.2636 34 33.2636 40.7C31.9636 45.2 33.1636 50.1 36.5636 53.4L27.2636 53.3ZM45.3636 53.3C40.3636 53.3 36.2636 49.2 36.2636 44.3C36.2636 39.3 40.3636 35.3 45.3636 35.3C50.3636 35.3 54.4636 39.4 54.4636 44.3C54.4636 49.3 50.4636 53.3 45.3636 53.3Z" fill="#9355E1"/>
<path d="M43.5636 45.3L41.2636 43L38.6636 45.6L43.5636 50.5L52.1636 42L49.5636 39.4L43.5636 45.3Z" fill="#9355E1"/>
</svg>
