<svg width="45" height="57" viewBox="0 0 45 57" fill="none" xmlns="http://www.w3.org/2000/svg">
<path d="M22.5 0C10.1 0 0 10.4 0 23.2V33.9C0 46.6 10.1 57 22.5 57C34.9 57 45 46.6 45 33.8V23.2C45 10.4 34.9 0 22.5 0ZM24.8 19.9C26.1 18.9 27.2 17.8 28.3 16.6C31.9 20.5 36.5 23.3 41.6 24.6V33.9C41.6 44.7 33.1 53.5 22.6 53.5C12.1 53.5 3.6 44.7 3.6 33.9V24.9C4.9 25.2 6.2 25.4 7.6 25.5C7.4 25.4 17.2 25.8 24.8 19.9ZM7.6 21.8C6.2 21.7 4.9 21.5 3.6 21.2C4.6 10.5 14 2.6 24.4 3.7C33.2 4.6 40.3 11.7 41.4 20.8C36.8 19.4 32.7 16.6 29.6 12.7L28.3 11L26.9 12.7C25.7 14.3 24.2 15.7 22.6 17C16.3 21.8 7.6 21.8 7.6 21.8Z" fill="#FF3B76"/>
<path d="M15.6 28.5H12.1V32.1H15.6V28.5Z" fill="#FF3B76"/>
<path d="M32.9 28.5H29.4V32.1H32.9V28.5Z" fill="#FF3B76"/>
<path d="M12.1 39.1999C12.1 45.0999 16.8 49.8999 22.5 49.8999C28.2 49.8999 32.9 45.0999 32.9 39.1999V37.3999H12.1V39.1999ZM29.2 40.9999C28.3 44.7999 24.5 47.0999 20.8 46.0999C18.4 45.4999 16.4 43.4999 15.8 40.9999H29.2Z" fill="#FF3B76"/>
</svg>
