<svg width="58" height="57" viewBox="0 0 58 57" fill="none" xmlns="http://www.w3.org/2000/svg">
<path d="M52.3 15.9L29 0L2.4 18.1C-0.100001 19.8 -0.700001 23.2 0.999999 25.6C2 27.2 3.7 28 5.4 28V42.5H9V26.8L29 13.2L48.9 26.8V42.6H52.5V28C54.3 28 55.9 27.1 57 25.7C58.7 23.3 58.1 19.9 55.7 18.2C55.7 18.2 55.7 18.2 55.6 18.2L52.3 15.9L51.1 17.6L50.2 18.9L53.5 21.1C54 21.4 54.3 22 54.3 22.6C54.3 23 54.2 23.3 54 23.6C53.4 24.4 52.3 24.6 51.4 24.1L29 8.8L6.5 24.1C5.7 24.7 4.5 24.4 3.9 23.6C3.7 23.3 3.6 22.9 3.6 22.6C3.6 22 3.9 21.4 4.4 21.1L29 4.4L50.3 18.9" fill="#FF3B76"/>
<path d="M29 19C25 19 21.8 22.2 21.8 26.2C21.8 30.2 25 33.4 29 33.4C33 33.4 36.2 30.2 36.2 26.2C36.2 22.2 33 19 29 19ZM29 29.9C27 29.9 25.4 28.3 25.4 26.3C25.4 24.3 27 22.7 29 22.7C31 22.7 32.6 24.3 32.6 26.3C32.6 28.3 31 29.9 29 29.9Z" fill="#FF3B76"/>
<path d="M36.2 53.4001H32.6V37.1001H18.1V53.4001H14.5V46.2001H0V57.0001H58V46.1001H36.2V53.4001ZM10.9 53.4001H3.6V49.8001H10.8V53.4001H10.9ZM29 53.4001H21.8V40.7001H29V53.4001ZM39.9 49.8001H54.4V53.4001H39.9V49.8001Z" fill="#FF3B76"/>
<path d="M45.3 38.8999H36.2V42.4999H45.3V38.8999Z" fill="#FF3B76"/>
</svg>
